<svg xmlns="http://www.w3.org/2000/svg" width="512" height="512" viewBox="0 0 512 512" version="1.1">
	<path d="M 303.798 18.875 C 283.797 25.465, 271.652 43.302, 271.711 66 C 271.732 74.199, 272.613 77.923, 277.080 88.712 C 277.811 90.478, 278.129 92.204, 277.786 92.548 C 277.443 92.891, 273.755 92.622, 269.592 91.950 C 264.950 91.202, 257.279 90.935, 249.761 91.261 C 208.348 93.056, 173.889 120.236, 166.444 156.981 C 163.124 173.362, 165.802 189.248, 174.427 204.339 L 178.906 212.177 175.076 217.023 C 165.970 228.543, 159.976 243.263, 155.848 264.245 C 152.791 279.778, 152.771 302.310, 155.801 316.214 C 160.061 335.759, 166.650 350.893, 178.832 369.110 C 195.443 393.952, 213.601 410.269, 238.521 422.750 C 249.933 428.465, 265.522 434.490, 273.109 436.117 L 278.290 437.228 277.663 447.483 C 276.357 468.813, 272.928 475.648, 262.334 478.037 C 254.074 479.900, 246.723 475.007, 245.497 466.828 C 244.136 457.754, 249.997 451.011, 259.250 451.004 C 263.776 451, 264 450.869, 264 448.223 C 264 439.863, 252.381 435.214, 243.197 439.899 C 234.073 444.554, 229.618 452.430, 229.563 464.006 C 229.532 470.241, 230 472.479, 232.324 477.230 C 241.671 496.334, 267.199 499.695, 281.567 483.714 C 288.658 475.828, 292.328 462.418, 291.753 446.500 L 291.500 439.500 303 439.847 C 319.371 440.341, 337.915 437.531, 348.670 432.925 C 358.644 428.654, 366.254 417.940, 366.374 408 C 366.485 398.781, 359.797 388.979, 350.329 384.486 C 346.787 382.805, 346.824 382.916, 344.952 368 C 344.366 363.325, 342.337 348.503, 340.443 335.063 C 338.549 321.623, 337 309.146, 337 307.336 C 337 303.292, 338.950 301.870, 348.512 298.942 C 369.361 292.559, 385.179 278.102, 390.949 260.159 C 392.851 254.244, 393.169 251.459, 392.824 243.767 C 392.458 235.633, 391.964 233.583, 388.785 227 C 383.011 215.045, 370.533 203.998, 357.029 198.885 C 349.393 195.994, 338.043 194.076, 328.317 194.035 C 321.406 194.005, 320.055 193.728, 319.620 192.250 C 319.337 191.287, 317.932 183.750, 316.499 175.500 C 314.393 163.376, 307.504 128.256, 305.277 118.296 C 304.722 115.814, 304.952 115.729, 316.727 114.031 C 326.277 112.654, 333.811 109.738, 340.240 104.931 C 345.716 100.837, 352.763 92.345, 356.080 85.844 C 358.572 80.958, 360.971 70.729, 360.968 65 C 360.964 58.592, 358.487 47.744, 355.576 41.384 C 352.065 33.716, 343.113 24.673, 335.155 20.755 C 329.431 17.938, 327.517 17.524, 319.079 17.277 C 311.808 17.064, 308.126 17.449, 303.798 18.875 M 310 34.935 C 292.379 40.315, 285.996 54.793, 290.965 78.112 C 294.055 92.610, 297.099 95.412, 309.700 95.356 C 337.535 95.231, 353.917 60.425, 334.872 41.875 C 327.951 35.134, 318.232 32.422, 310 34.935 M 156 50.872 C 126.866 63.983, 106.452 78.331, 84.500 101.126 C 63.723 122.700, 48.295 147.884, 36.485 179.500 C 19.841 224.056, 18.197 278.213, 32.113 323.500 C 50.989 384.931, 91.518 433.187, 146.404 459.580 C 161.119 466.656, 165.209 467.901, 167.498 466.002 C 169.316 464.493, 169.492 458.427, 167.750 457.334 C 167.063 456.902, 162.393 454.695, 157.373 452.428 C 114.354 433.005, 77.599 397.151, 56.983 354.500 C 46.931 333.703, 40.508 314.372, 36.715 293.500 C 33.532 275.983, 33.579 240.919, 36.809 223.244 C 42.083 194.390, 52.864 165.606, 67.141 142.265 C 86.502 110.612, 119.132 81.065, 152 65.423 C 171.733 56.032, 170.466 56.857, 170.818 53.185 C 171.191 49.304, 169.617 46.990, 166.628 47.024 C 165.457 47.037, 160.675 48.769, 156 50.872 M 388.245 75.250 C 386.685 77.200, 385.893 80.558, 386.574 82.333 C 386.915 83.222, 392.169 87.865, 398.249 92.651 C 424.651 113.436, 444.352 138.386, 457.352 167.500 C 466.795 188.649, 473.400 212.806, 476.051 235.898 C 477.852 251.576, 476.809 283.669, 474.052 297.418 C 459.503 369.979, 414.511 426.774, 351.148 452.563 C 346.004 454.657, 341.565 456.970, 341.284 457.703 C 340.675 459.289, 342.688 464.496, 344.487 465.989 C 347.333 468.351, 374.728 456.003, 391.206 444.929 C 432.725 417.027, 460.834 379.788, 476.990 331.280 C 489.167 294.722, 491.754 258.005, 484.955 218.234 C 478.980 183.290, 463.270 147.132, 442.489 120.500 C 430.631 105.304, 412.288 88.064, 398.168 78.847 C 390.048 73.546, 389.707 73.422, 388.245 75.250 M 98.030 119.750 C 69.664 148.500, 50.715 188.772, 44.440 233.647 C 42.242 249.368, 42.909 276.496, 45.910 293.419 C 48.722 309.277, 55.703 329.883, 63.973 346.740 C 70.727 360.505, 81.767 378.249, 87.986 385.331 L 91.291 389.095 94.145 386.361 C 95.715 384.856, 97 383.142, 97 382.552 C 97 381.961, 93.131 375.632, 88.402 368.489 C 62.656 329.592, 51.126 288.261, 54.115 245.575 C 57.194 201.616, 76.243 157.154, 104.250 128.560 C 111.816 120.835, 114 117.988, 114 115.850 C 114 112.521, 112.071 108, 110.651 108 C 110.085 108, 104.406 113.287, 98.030 119.750 M 397.551 108.917 C 397.240 109.421, 396.715 111.803, 396.385 114.209 C 395.801 118.468, 395.909 118.684, 400.470 122.422 C 412.882 132.593, 429.334 154.898, 437.939 173.222 C 444.293 186.752, 447.223 195.114, 450.865 210.110 C 464.541 266.432, 455.303 318.706, 423.102 367.210 C 418.096 374.751, 414.010 381.726, 414.022 382.710 C 414.034 383.695, 414.943 385.625, 416.041 387 L 418.038 389.500 422.828 384.387 C 440.806 365.202, 457.686 329.802, 464.501 297 C 468.042 279.955, 468.954 253.213, 466.637 234.388 C 463.696 210.491, 455.984 184.690, 445.854 164.863 C 436.759 147.060, 419.158 124.190, 405.749 112.750 C 400.135 107.961, 398.589 107.238, 397.551 108.917 M 243.472 116.525 C 220.267 121.624, 199.176 136.748, 190.341 154.624 C 186.695 162.002, 186.500 162.882, 186.500 171.969 C 186.500 180.765, 186.763 182.068, 189.742 188.021 C 191.524 191.584, 193.863 195.625, 194.939 197 L 196.896 199.500 203.198 197.294 C 206.664 196.080, 213.325 194.147, 218 192.997 C 244.599 186.458, 260.182 178.471, 271.822 165.410 C 281.403 154.660, 285.957 142.615, 285.985 127.941 C 286.003 118.888, 284.956 117.105, 278.941 115.944 C 272.281 114.659, 250.330 115.018, 243.472 116.525 M 300.016 151.500 C 299.873 164.094, 293.298 178.328, 282.147 190.182 C 270.117 202.970, 261.273 208.515, 238.618 217.475 C 232.083 220.059, 223.647 224.024, 219.872 226.285 C 211.781 231.131, 205.922 236.673, 208.085 237.434 C 221.920 242.299, 226.256 245.336, 227.508 251.038 C 228.350 254.871, 226.912 256.677, 221.953 258.013 C 215.028 259.877, 206.652 257.003, 200.778 250.747 C 199.280 249.152, 197.580 248.141, 196.999 248.500 C 194.917 249.787, 187.039 266.953, 184.998 274.651 C 182.592 283.723, 182.104 301.543, 183.978 311.879 C 186.621 326.454, 192.614 340.553, 202.304 354.992 C 208.688 364.505, 224.303 380.025, 233.933 386.429 C 248.231 395.938, 274.662 407.610, 280.138 406.834 C 282.353 406.520, 282.557 405.883, 283.617 396 C 287.001 364.451, 289.318 346.378, 290.104 345.404 C 290.613 344.774, 296.613 344.041, 304.244 343.677 C 319.812 342.934, 329.017 341.550, 330.203 339.774 C 330.671 339.073, 330.824 337.243, 330.543 335.707 C 330.263 334.170, 329.102 326.520, 327.965 318.707 C 326.828 310.893, 325.343 303.939, 324.666 303.253 C 323.989 302.567, 319.849 301.553, 315.467 300.998 C 305.486 299.736, 298.231 297.650, 290.831 293.915 C 287.655 292.312, 284.594 291, 284.029 291 C 283.463 291, 283 292.690, 283 294.757 C 283 303.426, 278.435 311.483, 271.070 315.813 C 265.374 319.162, 255.599 319.529, 250 316.604 C 240.488 311.636, 235.573 303.789, 235.530 293.500 C 235.504 287.487, 235.938 285.725, 238.604 281 C 242.219 274.594, 247.607 270.410, 254.558 268.613 C 260.099 267.180, 259.961 267.638, 258.110 256.750 C 256.222 245.651, 258.900 233.594, 265.384 224 C 272.686 213.195, 284.985 204.341, 300.347 198.830 C 305.213 197.085, 309.423 195.061, 309.703 194.333 C 310.293 192.794, 302.275 151.279, 300.951 149.019 C 300.323 147.947, 300.048 148.678, 300.016 151.500 M 324.374 210.467 C 324.065 211.274, 324.745 217.686, 325.886 224.717 C 328.863 243.058, 331.703 262.949, 332.994 274.500 C 334.479 287.780, 334.562 288, 338.087 288 C 346.457 288, 363.467 277.447, 370.503 267.889 C 376.418 259.854, 378.366 253.610, 377.785 244.554 C 376.771 228.747, 363.804 215.477, 344.540 210.530 C 336.643 208.503, 325.142 208.466, 324.374 210.467 M 297.991 215.124 C 288.036 220.107, 279.525 228.184, 275.448 236.516 C 269.578 248.514, 272.496 261.655, 283.442 272.522 C 292.192 281.210, 308.861 288.436, 318.701 287.807 L 323.500 287.500 323.345 281.500 C 323.118 272.722, 314.244 213.999, 312.900 212.380 C 310.948 210.028, 306.559 210.836, 297.991 215.124 M 196 212.358 C 196 212.673, 197.325 215.020, 198.944 217.573 C 200.564 220.127, 202.172 223.630, 202.519 225.358 C 203.921 232.349, 203.690 232.269, 209.391 227.716 C 212.294 225.397, 216.881 222.172, 219.585 220.550 L 224.500 217.600 216 216.419 C 208.288 215.348, 201.249 213.800, 197.437 212.338 C 196.647 212.034, 196 212.044, 196 212.358 M 177.946 223.233 C 176.260 225.561, 173.483 230.393, 171.776 233.969 L 168.672 240.472 171.361 250.986 C 173.638 259.888, 175.919 275.404, 175.983 282.417 C 176.014 285.842, 176.929 283.538, 179.388 273.841 C 181.841 264.173, 184.493 258.042, 190.653 247.804 L 194.079 242.108 190.687 235.304 C 188.821 231.562, 186.492 226.363, 185.511 223.750 C 184.531 221.137, 183.117 219, 182.370 219 C 181.624 219, 179.633 220.905, 177.946 223.233 M 253.893 282.497 C 248.805 285.262, 246.185 292.001, 248.028 297.584 C 249.591 302.321, 253.737 305, 259.504 305 C 263.511 305, 264.699 304.501, 267.600 301.600 C 270.471 298.729, 271 297.492, 271 293.647 C 271 291.143, 270.462 287.914, 269.805 286.472 C 267.526 281.470, 259.481 279.460, 253.893 282.497 M 313.500 360.232 C 300.696 361.536, 300.002 361.921, 299.990 367.729 C 299.985 370.353, 299.089 379.700, 298 388.500 C 296.911 397.300, 296.015 405.962, 296.010 407.750 L 296 411 307 411 L 318 411 318.006 406.750 C 318.009 404.413, 318.489 400.781, 319.072 398.679 C 320.369 394.010, 326.349 387.176, 330.750 385.334 C 334.469 383.777, 334.559 383.197, 332.941 371.291 C 331.173 358.279, 331.532 358.979, 326.731 359.158 C 324.404 359.245, 318.450 359.728, 313.500 360.232 M 336.174 403.314 C 333.377 406.293, 333.406 410.224, 336.250 413.407 C 339.636 417.196, 343.147 417.637, 346.559 414.703 C 350.290 411.494, 350.551 405.674, 347.089 402.871 C 343.858 400.254, 338.858 400.457, 336.174 403.314" stroke="none" fill="black" fill-rule="evenodd"/>
</svg>